<?xml version="1.0" encoding="utf-8" standalone="no"?>
<!DOCTYPE svg PUBLIC "-//W3C//DTD SVG 1.1//EN"
  "http://www.w3.org/Graphics/SVG/1.1/DTD/svg11.dtd">
<svg xmlns:xlink="http://www.w3.org/1999/xlink" width="656.205pt" height="397.720312pt" viewBox="0 0 656.205 397.720312" xmlns="http://www.w3.org/2000/svg" version="1.1">
 <metadata>
  <rdf:RDF xmlns:dc="http://purl.org/dc/elements/1.1/" xmlns:cc="http://creativecommons.org/ns#" xmlns:rdf="http://www.w3.org/1999/02/22-rdf-syntax-ns#">
   <cc:Work>
    <dc:type rdf:resource="http://purl.org/dc/dcmitype/StillImage"/>
    <dc:date>2025-06-27T15:24:33.540225</dc:date>
    <dc:format>image/svg+xml</dc:format>
    <dc:creator>
     <cc:Agent>
      <dc:title>Matplotlib v3.10.3, https://matplotlib.org/</dc:title>
     </cc:Agent>
    </dc:creator>
   </cc:Work>
  </rdf:RDF>
 </metadata>
 <defs>
  <style type="text/css">*{stroke-linejoin: round; stroke-linecap: butt}</style>
 </defs>
 <g id="figure_1">
  <g id="patch_1">
   <path d="M 0 397.720312 
L 656.205 397.720312 
L 656.205 0 
L 0 0 
z
" style="fill: #ffffff"/>
  </g>
  <g id="axes_1">
   <g id="patch_2">
    <path d="M 91.005 339.84 
L 649.005 339.84 
L 649.005 7.2 
L 91.005 7.2 
z
" style="fill: #ffffff"/>
   </g>
   <g id="FillBetweenPolyCollection_1">
    <defs>
     <path id="mad7156d92d" d="M 623.641364 -375.400313 
L 623.641364 -229.552248 
L 398.736377 -119.140466 
L 317.244827 -143.628343 
L 279.264758 -208.109777 
L 257.658998 -203.082117 
L 243.862693 -144.622632 
L 233.732432 -125.358378 
L 225.376366 -137.605874 
L 218.644756 -175.684602 
L 212.416898 -143.180339 
L 207.070159 -129.641926 
L 202.055096 -117.858922 
L 197.370031 -144.810519 
L 192.949487 -163.901248 
L 189.00279 -134.588517 
L 185.209808 -148.036678 
L 181.239452 -114.006488 
L 177.455945 -150.863399 
L 173.924865 -139.075856 
L 170.638385 -130.61292 
L 167.487247 -152.967611 
L 164.454082 -145.176242 
L 161.554037 -155.380151 
L 158.756241 -139.862806 
L 155.974833 -100.611666 
L 153.116666 -134.174124 
L 150.408908 -157.315853 
L 147.779671 -142.322356 
L 145.376161 -146.168362 
L 142.786798 -94.594755 
L 142.786798 -158.403166 
L 142.786798 -158.403166 
L 145.376161 -233.67058 
L 147.779671 -188.316824 
L 150.408908 -239.337186 
L 153.116666 -185.15783 
L 155.974833 -157.35362 
L 158.756241 -204.596499 
L 161.554037 -219.428991 
L 164.454082 -224.38085 
L 167.487247 -225.298573 
L 170.638385 -205.240995 
L 173.924865 -218.177309 
L 177.455945 -227.036825 
L 181.239452 -187.538826 
L 185.209808 -249.627716 
L 189.00279 -212.354862 
L 192.949487 -221.664896 
L 197.370031 -210.296694 
L 202.055096 -183.459024 
L 207.070159 -193.419826 
L 212.416898 -221.505165 
L 218.644756 -269.716133 
L 225.376366 -208.399963 
L 233.732432 -205.6648 
L 243.862693 -222.28021 
L 257.658998 -298.674907 
L 279.264758 -325.889392 
L 317.244827 -212.405976 
L 398.736377 -184.355269 
L 623.641364 -375.400313 
z
" style="stroke: #ff0000; stroke-opacity: 0.2"/>
    </defs>
    <g clip-path="url(#p061591dfef)">
     <use xlink:href="#mad7156d92d" x="0" y="397.720312" style="fill: #ff0000; fill-opacity: 0.2; stroke: #ff0000; stroke-opacity: 0.2"/>
    </g>
   </g>
   <g id="FillBetweenPolyCollection_2">
    <defs>
     <path id="m8387c80295" d="M 600.606202 -243.980542 
L 600.606202 -182.326414 
L 409.541563 -159.31684 
L 330.747289 -150.84032 
L 286.79837 -175.425302 
L 261.58686 -161.544067 
L 244.765618 -150.224922 
L 232.995829 -155.259092 
L 224.488859 -141.504156 
L 217.475464 -138.213329 
L 211.599674 -147.581638 
L 206.375402 -123.724657 
L 201.413683 -122.560255 
L 196.88704 -131.053541 
L 192.526341 -153.483419 
L 188.507594 -135.475539 
L 184.529474 -139.919204 
L 180.830299 -137.79552 
L 177.172964 -144.875608 
L 173.79301 -141.103842 
L 170.412822 -129.351084 
L 167.323668 -151.255254 
L 164.253618 -158.010408 
L 161.255173 -142.018586 
L 158.38892 -139.891496 
L 155.615417 -129.223585 
L 152.837269 -130.148567 
L 150.24009 -151.548252 
L 147.625161 -139.784371 
L 145.16468 -141.634519 
L 142.724655 -121.563034 
L 142.724655 -194.106843 
L 142.724655 -194.106843 
L 145.16468 -200.118611 
L 147.625161 -201.074374 
L 150.24009 -216.33636 
L 152.837269 -196.483611 
L 155.615417 -206.53956 
L 158.38892 -207.544943 
L 161.255173 -215.636281 
L 164.253618 -243.986336 
L 167.323668 -234.970403 
L 170.412822 -186.61824 
L 173.79301 -213.159823 
L 177.172964 -216.081389 
L 180.830299 -202.430753 
L 184.529474 -216.264049 
L 188.507594 -211.919705 
L 192.526341 -224.237107 
L 196.88704 -207.299127 
L 201.413683 -182.340176 
L 206.375402 -194.44956 
L 211.599674 -225.698318 
L 217.475464 -217.628758 
L 224.488859 -219.792878 
L 232.995829 -222.729922 
L 244.765618 -214.590167 
L 261.58686 -250.958506 
L 286.79837 -239.28628 
L 330.747289 -220.31282 
L 409.541563 -232.57004 
L 600.606202 -243.980542 
z
" style="stroke: #ffa500; stroke-opacity: 0.2"/>
    </defs>
    <g clip-path="url(#p061591dfef)">
     <use xlink:href="#m8387c80295" x="0" y="397.720312" style="fill: #ffa500; fill-opacity: 0.2; stroke: #ffa500; stroke-opacity: 0.2"/>
    </g>
   </g>
   <g id="FillBetweenPolyCollection_3">
    <defs>
     <path id="m37cf89c132" d="M 444.964193 -238.901359 
L 444.964193 -123.179374 
L 307.118991 -113.75923 
L 243.047967 -99.730743 
L 222.085983 -124.555134 
L 209.785791 -124.149675 
L 198.835241 -101.095866 
L 191.451409 -119.806184 
L 184.80679 -111.436126 
L 179.409049 -83.643102 
L 174.584235 -142.309402 
L 170.169663 -81.625955 
L 166.106087 -74.871677 
L 162.277358 -102.469883 
L 158.755925 -110.258242 
L 155.348345 -137.134132 
L 151.849066 -107.498281 
L 148.679518 -116.104716 
L 145.523102 -73.000312 
L 142.685264 -90.084357 
L 139.844288 -133.800058 
L 137.191942 -108.456594 
L 134.663035 -116.411059 
L 132.089347 -82.876306 
L 129.660853 -123.328013 
L 127.159969 -115.642711 
L 124.97059 -126.344249 
L 122.675078 -100.315164 
L 120.596376 -99.20643 
L 118.478856 -134.754699 
L 116.451329 -101.220585 
L 116.451329 -196.676107 
L 116.451329 -196.676107 
L 118.478856 -230.289126 
L 120.596376 -210.588619 
L 122.675078 -194.454127 
L 124.97059 -232.131218 
L 127.159969 -218.614254 
L 129.660853 -197.430279 
L 132.089347 -164.279147 
L 134.663035 -225.428708 
L 137.191942 -189.17434 
L 139.844288 -248.1113 
L 142.685264 -188.01009 
L 145.523102 -160.285811 
L 148.679518 -207.482349 
L 151.849066 -202.941532 
L 155.348345 -251.299948 
L 158.755925 -215.118137 
L 162.277358 -204.297405 
L 166.106087 -158.973351 
L 170.169663 -187.184149 
L 174.584235 -267.546289 
L 179.409049 -163.454885 
L 184.80679 -198.693902 
L 191.451409 -238.08725 
L 198.835241 -182.477035 
L 209.785791 -223.585256 
L 222.085983 -211.494007 
L 243.047967 -142.324132 
L 307.118991 -222.54193 
L 444.964193 -238.901359 
z
" style="stroke: #0000ff; stroke-opacity: 0.2"/>
    </defs>
    <g clip-path="url(#p061591dfef)">
     <use xlink:href="#m37cf89c132" x="0" y="397.720312" style="fill: #0000ff; fill-opacity: 0.2; stroke: #0000ff; stroke-opacity: 0.2"/>
    </g>
   </g>
   <g id="FillBetweenPolyCollection_4">
    <defs>
     <path id="m9607216dc9" d="M 432.250035 -243.612955 
L 432.250035 -135.248358 
L 310.632545 -94.749526 
L 254.493056 -119.995377 
L 225.791281 -124.91385 
L 209.246735 -121.369977 
L 198.574049 -89.823117 
L 190.704968 -128.264174 
L 184.449463 -121.06707 
L 178.95445 -120.411132 
L 174.122259 -119.369855 
L 169.791343 -104.68487 
L 165.651657 -102.591928 
L 161.925557 -127.160938 
L 158.456546 -117.266436 
L 155.014773 -130.919282 
L 151.673817 -105.266444 
L 148.377518 -104.605696 
L 145.36137 -99.765813 
L 142.453102 -132.146639 
L 139.652149 -111.786409 
L 136.909516 -132.235607 
L 134.370666 -119.063016 
L 131.836095 -125.442643 
L 129.404542 -122.409371 
L 127.025057 -111.455441 
L 124.778699 -114.310813 
L 122.52358 -100.005944 
L 120.452798 -105.50193 
L 118.379474 -108.866435 
L 116.368636 -100.20953 
L 116.368636 -196.747471 
L 116.368636 -196.747471 
L 118.379474 -213.206943 
L 120.452798 -194.490506 
L 122.52358 -171.428419 
L 124.778699 -202.349002 
L 127.025057 -208.541938 
L 129.404542 -209.980807 
L 131.836095 -210.646506 
L 134.370666 -205.949426 
L 136.909516 -218.808925 
L 139.652149 -192.712033 
L 142.453102 -216.75962 
L 145.36137 -184.051056 
L 148.377518 -186.374522 
L 151.673817 -203.432229 
L 155.014773 -225.050516 
L 158.456546 -209.53252 
L 161.925557 -224.281343 
L 165.651657 -179.015218 
L 169.791343 -213.271751 
L 174.122259 -208.621631 
L 178.95445 -202.986742 
L 184.449463 -206.464244 
L 190.704968 -222.799784 
L 198.574049 -163.678341 
L 209.246735 -208.697086 
L 225.791281 -219.657891 
L 254.493056 -175.946542 
L 310.632545 -193.547872 
L 432.250035 -243.612955 
z
" style="stroke: #008000; stroke-opacity: 0.2"/>
    </defs>
    <g clip-path="url(#p061591dfef)">
     <use xlink:href="#m9607216dc9" x="0" y="397.720312" style="fill: #008000; fill-opacity: 0.2; stroke: #008000; stroke-opacity: 0.2"/>
    </g>
   </g>
   <g id="matplotlib.axis_1">
    <g id="xtick_1">
     <g id="line2d_1">
      <defs>
       <path id="m95166f646b" d="M 0 0 
L 0 3.5 
" style="stroke: #000000; stroke-width: 0.8"/>
      </defs>
      <g>
       <use xlink:href="#m95166f646b" x="108.842884" y="339.84" style="stroke: #000000; stroke-width: 0.8"/>
      </g>
     </g>
     <g id="text_1">
      <!-- 0.01 -->
      <g transform="translate(91.030384 358.9975) scale(0.16 -0.16)">
       <defs>
        <path id="DejaVuSans-30" d="M 2034 4250 
Q 1547 4250 1301 3770 
Q 1056 3291 1056 2328 
Q 1056 1369 1301 889 
Q 1547 409 2034 409 
Q 2525 409 2770 889 
Q 3016 1369 3016 2328 
Q 3016 3291 2770 3770 
Q 2525 4250 2034 4250 
z
M 2034 4750 
Q 2819 4750 3233 4129 
Q 3647 3509 3647 2328 
Q 3647 1150 3233 529 
Q 2819 -91 2034 -91 
Q 1250 -91 836 529 
Q 422 1150 422 2328 
Q 422 3509 836 4129 
Q 1250 4750 2034 4750 
z
" transform="scale(0.015625)"/>
        <path id="DejaVuSans-2e" d="M 684 794 
L 1344 794 
L 1344 0 
L 684 0 
L 684 794 
z
" transform="scale(0.015625)"/>
        <path id="DejaVuSans-31" d="M 794 531 
L 1825 531 
L 1825 4091 
L 703 3866 
L 703 4441 
L 1819 4666 
L 2450 4666 
L 2450 531 
L 3481 531 
L 3481 0 
L 794 0 
L 794 531 
z
" transform="scale(0.015625)"/>
       </defs>
       <use xlink:href="#DejaVuSans-30"/>
       <use xlink:href="#DejaVuSans-2e" transform="translate(63.623047 0)"/>
       <use xlink:href="#DejaVuSans-30" transform="translate(95.410156 0)"/>
       <use xlink:href="#DejaVuSans-31" transform="translate(159.033203 0)"/>
      </g>
     </g>
    </g>
    <g id="xtick_2">
     <g id="line2d_2">
      <g>
       <use xlink:href="#m95166f646b" x="171.262162" y="339.84" style="stroke: #000000; stroke-width: 0.8"/>
      </g>
     </g>
     <g id="text_2">
      <!-- 0.02 -->
      <g transform="translate(153.449662 358.9975) scale(0.16 -0.16)">
       <defs>
        <path id="DejaVuSans-32" d="M 1228 531 
L 3431 531 
L 3431 0 
L 469 0 
L 469 531 
Q 828 903 1448 1529 
Q 2069 2156 2228 2338 
Q 2531 2678 2651 2914 
Q 2772 3150 2772 3378 
Q 2772 3750 2511 3984 
Q 2250 4219 1831 4219 
Q 1534 4219 1204 4116 
Q 875 4013 500 3803 
L 500 4441 
Q 881 4594 1212 4672 
Q 1544 4750 1819 4750 
Q 2544 4750 2975 4387 
Q 3406 4025 3406 3419 
Q 3406 3131 3298 2873 
Q 3191 2616 2906 2266 
Q 2828 2175 2409 1742 
Q 1991 1309 1228 531 
z
" transform="scale(0.015625)"/>
       </defs>
       <use xlink:href="#DejaVuSans-30"/>
       <use xlink:href="#DejaVuSans-2e" transform="translate(63.623047 0)"/>
       <use xlink:href="#DejaVuSans-30" transform="translate(95.410156 0)"/>
       <use xlink:href="#DejaVuSans-32" transform="translate(159.033203 0)"/>
      </g>
     </g>
    </g>
    <g id="xtick_3">
     <g id="line2d_3">
      <g>
       <use xlink:href="#m95166f646b" x="233.68144" y="339.84" style="stroke: #000000; stroke-width: 0.8"/>
      </g>
     </g>
     <g id="text_3">
      <!-- 0.03 -->
      <g transform="translate(215.86894 358.9975) scale(0.16 -0.16)">
       <defs>
        <path id="DejaVuSans-33" d="M 2597 2516 
Q 3050 2419 3304 2112 
Q 3559 1806 3559 1356 
Q 3559 666 3084 287 
Q 2609 -91 1734 -91 
Q 1441 -91 1130 -33 
Q 819 25 488 141 
L 488 750 
Q 750 597 1062 519 
Q 1375 441 1716 441 
Q 2309 441 2620 675 
Q 2931 909 2931 1356 
Q 2931 1769 2642 2001 
Q 2353 2234 1838 2234 
L 1294 2234 
L 1294 2753 
L 1863 2753 
Q 2328 2753 2575 2939 
Q 2822 3125 2822 3475 
Q 2822 3834 2567 4026 
Q 2313 4219 1838 4219 
Q 1578 4219 1281 4162 
Q 984 4106 628 3988 
L 628 4550 
Q 988 4650 1302 4700 
Q 1616 4750 1894 4750 
Q 2613 4750 3031 4423 
Q 3450 4097 3450 3541 
Q 3450 3153 3228 2886 
Q 3006 2619 2597 2516 
z
" transform="scale(0.015625)"/>
       </defs>
       <use xlink:href="#DejaVuSans-30"/>
       <use xlink:href="#DejaVuSans-2e" transform="translate(63.623047 0)"/>
       <use xlink:href="#DejaVuSans-30" transform="translate(95.410156 0)"/>
       <use xlink:href="#DejaVuSans-33" transform="translate(159.033203 0)"/>
      </g>
     </g>
    </g>
    <g id="xtick_4">
     <g id="line2d_4">
      <g>
       <use xlink:href="#m95166f646b" x="296.100717" y="339.84" style="stroke: #000000; stroke-width: 0.8"/>
      </g>
     </g>
     <g id="text_4">
      <!-- 0.04 -->
      <g transform="translate(278.288217 358.9975) scale(0.16 -0.16)">
       <defs>
        <path id="DejaVuSans-34" d="M 2419 4116 
L 825 1625 
L 2419 1625 
L 2419 4116 
z
M 2253 4666 
L 3047 4666 
L 3047 1625 
L 3713 1625 
L 3713 1100 
L 3047 1100 
L 3047 0 
L 2419 0 
L 2419 1100 
L 313 1100 
L 313 1709 
L 2253 4666 
z
" transform="scale(0.015625)"/>
       </defs>
       <use xlink:href="#DejaVuSans-30"/>
       <use xlink:href="#DejaVuSans-2e" transform="translate(63.623047 0)"/>
       <use xlink:href="#DejaVuSans-30" transform="translate(95.410156 0)"/>
       <use xlink:href="#DejaVuSans-34" transform="translate(159.033203 0)"/>
      </g>
     </g>
    </g>
    <g id="xtick_5">
     <g id="line2d_5">
      <g>
       <use xlink:href="#m95166f646b" x="358.519995" y="339.84" style="stroke: #000000; stroke-width: 0.8"/>
      </g>
     </g>
     <g id="text_5">
      <!-- 0.05 -->
      <g transform="translate(340.707495 358.9975) scale(0.16 -0.16)">
       <defs>
        <path id="DejaVuSans-35" d="M 691 4666 
L 3169 4666 
L 3169 4134 
L 1269 4134 
L 1269 2991 
Q 1406 3038 1543 3061 
Q 1681 3084 1819 3084 
Q 2600 3084 3056 2656 
Q 3513 2228 3513 1497 
Q 3513 744 3044 326 
Q 2575 -91 1722 -91 
Q 1428 -91 1123 -41 
Q 819 9 494 109 
L 494 744 
Q 775 591 1075 516 
Q 1375 441 1709 441 
Q 2250 441 2565 725 
Q 2881 1009 2881 1497 
Q 2881 1984 2565 2268 
Q 2250 2553 1709 2553 
Q 1456 2553 1204 2497 
Q 953 2441 691 2322 
L 691 4666 
z
" transform="scale(0.015625)"/>
       </defs>
       <use xlink:href="#DejaVuSans-30"/>
       <use xlink:href="#DejaVuSans-2e" transform="translate(63.623047 0)"/>
       <use xlink:href="#DejaVuSans-30" transform="translate(95.410156 0)"/>
       <use xlink:href="#DejaVuSans-35" transform="translate(159.033203 0)"/>
      </g>
     </g>
    </g>
    <g id="xtick_6">
     <g id="line2d_6">
      <g>
       <use xlink:href="#m95166f646b" x="420.939272" y="339.84" style="stroke: #000000; stroke-width: 0.8"/>
      </g>
     </g>
     <g id="text_6">
      <!-- 0.06 -->
      <g transform="translate(403.126772 358.9975) scale(0.16 -0.16)">
       <defs>
        <path id="DejaVuSans-36" d="M 2113 2584 
Q 1688 2584 1439 2293 
Q 1191 2003 1191 1497 
Q 1191 994 1439 701 
Q 1688 409 2113 409 
Q 2538 409 2786 701 
Q 3034 994 3034 1497 
Q 3034 2003 2786 2293 
Q 2538 2584 2113 2584 
z
M 3366 4563 
L 3366 3988 
Q 3128 4100 2886 4159 
Q 2644 4219 2406 4219 
Q 1781 4219 1451 3797 
Q 1122 3375 1075 2522 
Q 1259 2794 1537 2939 
Q 1816 3084 2150 3084 
Q 2853 3084 3261 2657 
Q 3669 2231 3669 1497 
Q 3669 778 3244 343 
Q 2819 -91 2113 -91 
Q 1303 -91 875 529 
Q 447 1150 447 2328 
Q 447 3434 972 4092 
Q 1497 4750 2381 4750 
Q 2619 4750 2861 4703 
Q 3103 4656 3366 4563 
z
" transform="scale(0.015625)"/>
       </defs>
       <use xlink:href="#DejaVuSans-30"/>
       <use xlink:href="#DejaVuSans-2e" transform="translate(63.623047 0)"/>
       <use xlink:href="#DejaVuSans-30" transform="translate(95.410156 0)"/>
       <use xlink:href="#DejaVuSans-36" transform="translate(159.033203 0)"/>
      </g>
     </g>
    </g>
    <g id="xtick_7">
     <g id="line2d_7">
      <g>
       <use xlink:href="#m95166f646b" x="483.35855" y="339.84" style="stroke: #000000; stroke-width: 0.8"/>
      </g>
     </g>
     <g id="text_7">
      <!-- 0.07 -->
      <g transform="translate(465.54605 358.9975) scale(0.16 -0.16)">
       <defs>
        <path id="DejaVuSans-37" d="M 525 4666 
L 3525 4666 
L 3525 4397 
L 1831 0 
L 1172 0 
L 2766 4134 
L 525 4134 
L 525 4666 
z
" transform="scale(0.015625)"/>
       </defs>
       <use xlink:href="#DejaVuSans-30"/>
       <use xlink:href="#DejaVuSans-2e" transform="translate(63.623047 0)"/>
       <use xlink:href="#DejaVuSans-30" transform="translate(95.410156 0)"/>
       <use xlink:href="#DejaVuSans-37" transform="translate(159.033203 0)"/>
      </g>
     </g>
    </g>
    <g id="xtick_8">
     <g id="line2d_8">
      <g>
       <use xlink:href="#m95166f646b" x="545.777827" y="339.84" style="stroke: #000000; stroke-width: 0.8"/>
      </g>
     </g>
     <g id="text_8">
      <!-- 0.08 -->
      <g transform="translate(527.965327 358.9975) scale(0.16 -0.16)">
       <defs>
        <path id="DejaVuSans-38" d="M 2034 2216 
Q 1584 2216 1326 1975 
Q 1069 1734 1069 1313 
Q 1069 891 1326 650 
Q 1584 409 2034 409 
Q 2484 409 2743 651 
Q 3003 894 3003 1313 
Q 3003 1734 2745 1975 
Q 2488 2216 2034 2216 
z
M 1403 2484 
Q 997 2584 770 2862 
Q 544 3141 544 3541 
Q 544 4100 942 4425 
Q 1341 4750 2034 4750 
Q 2731 4750 3128 4425 
Q 3525 4100 3525 3541 
Q 3525 3141 3298 2862 
Q 3072 2584 2669 2484 
Q 3125 2378 3379 2068 
Q 3634 1759 3634 1313 
Q 3634 634 3220 271 
Q 2806 -91 2034 -91 
Q 1263 -91 848 271 
Q 434 634 434 1313 
Q 434 1759 690 2068 
Q 947 2378 1403 2484 
z
M 1172 3481 
Q 1172 3119 1398 2916 
Q 1625 2713 2034 2713 
Q 2441 2713 2670 2916 
Q 2900 3119 2900 3481 
Q 2900 3844 2670 4047 
Q 2441 4250 2034 4250 
Q 1625 4250 1398 4047 
Q 1172 3844 1172 3481 
z
" transform="scale(0.015625)"/>
       </defs>
       <use xlink:href="#DejaVuSans-30"/>
       <use xlink:href="#DejaVuSans-2e" transform="translate(63.623047 0)"/>
       <use xlink:href="#DejaVuSans-30" transform="translate(95.410156 0)"/>
       <use xlink:href="#DejaVuSans-38" transform="translate(159.033203 0)"/>
      </g>
     </g>
    </g>
    <g id="xtick_9">
     <g id="line2d_9">
      <g>
       <use xlink:href="#m95166f646b" x="608.197105" y="339.84" style="stroke: #000000; stroke-width: 0.8"/>
      </g>
     </g>
     <g id="text_9">
      <!-- 0.09 -->
      <g transform="translate(590.384605 358.9975) scale(0.16 -0.16)">
       <defs>
        <path id="DejaVuSans-39" d="M 703 97 
L 703 672 
Q 941 559 1184 500 
Q 1428 441 1663 441 
Q 2288 441 2617 861 
Q 2947 1281 2994 2138 
Q 2813 1869 2534 1725 
Q 2256 1581 1919 1581 
Q 1219 1581 811 2004 
Q 403 2428 403 3163 
Q 403 3881 828 4315 
Q 1253 4750 1959 4750 
Q 2769 4750 3195 4129 
Q 3622 3509 3622 2328 
Q 3622 1225 3098 567 
Q 2575 -91 1691 -91 
Q 1453 -91 1209 -44 
Q 966 3 703 97 
z
M 1959 2075 
Q 2384 2075 2632 2365 
Q 2881 2656 2881 3163 
Q 2881 3666 2632 3958 
Q 2384 4250 1959 4250 
Q 1534 4250 1286 3958 
Q 1038 3666 1038 3163 
Q 1038 2656 1286 2365 
Q 1534 2075 1959 2075 
z
" transform="scale(0.015625)"/>
       </defs>
       <use xlink:href="#DejaVuSans-30"/>
       <use xlink:href="#DejaVuSans-2e" transform="translate(63.623047 0)"/>
       <use xlink:href="#DejaVuSans-30" transform="translate(95.410156 0)"/>
       <use xlink:href="#DejaVuSans-39" transform="translate(159.033203 0)"/>
      </g>
     </g>
    </g>
    <g id="text_10">
     <!-- $\lambda_k$ -->
     <g transform="translate(357.13 385.321094) scale(0.25 -0.25)">
      <defs>
       <path id="DejaVuSans-Oblique-3bb" d="M 2350 4316 
L 3125 0 
L 2516 0 
L 2038 2588 
L 328 0 
L -281 0 
L 1903 3356 
L 1794 3975 
Q 1725 4369 1391 4369 
L 1091 4369 
L 1184 4863 
L 1550 4856 
Q 2253 4847 2350 4316 
z
" transform="scale(0.015625)"/>
       <path id="DejaVuSans-Oblique-6b" d="M 1172 4863 
L 1747 4863 
L 1197 2028 
L 3169 3500 
L 3916 3500 
L 1716 1825 
L 3322 0 
L 2625 0 
L 1131 1709 
L 800 0 
L 225 0 
L 1172 4863 
z
" transform="scale(0.015625)"/>
      </defs>
      <use xlink:href="#DejaVuSans-Oblique-3bb" transform="translate(0 0.015625)"/>
      <use xlink:href="#DejaVuSans-Oblique-6b" transform="translate(59.179688 -16.390625) scale(0.7)"/>
     </g>
    </g>
   </g>
   <g id="matplotlib.axis_2">
    <g id="ytick_1">
     <g id="line2d_10">
      <defs>
       <path id="m44716e4197" d="M 0 0 
L -3.5 0 
" style="stroke: #000000; stroke-width: 0.8"/>
      </defs>
      <g>
       <use xlink:href="#m44716e4197" x="91.005" y="277.413874" style="stroke: #000000; stroke-width: 0.8"/>
      </g>
     </g>
     <g id="text_11">
      <!-- 0.006 -->
      <g transform="translate(38.2 283.492624) scale(0.16 -0.16)">
       <use xlink:href="#DejaVuSans-30"/>
       <use xlink:href="#DejaVuSans-2e" transform="translate(63.623047 0)"/>
       <use xlink:href="#DejaVuSans-30" transform="translate(95.410156 0)"/>
       <use xlink:href="#DejaVuSans-30" transform="translate(159.033203 0)"/>
       <use xlink:href="#DejaVuSans-36" transform="translate(222.65625 0)"/>
      </g>
     </g>
    </g>
    <g id="ytick_2">
     <g id="line2d_11">
      <g>
       <use xlink:href="#m44716e4197" x="91.005" y="206.840479" style="stroke: #000000; stroke-width: 0.8"/>
      </g>
     </g>
     <g id="text_12">
      <!-- 0.008 -->
      <g transform="translate(38.2 212.919229) scale(0.16 -0.16)">
       <use xlink:href="#DejaVuSans-30"/>
       <use xlink:href="#DejaVuSans-2e" transform="translate(63.623047 0)"/>
       <use xlink:href="#DejaVuSans-30" transform="translate(95.410156 0)"/>
       <use xlink:href="#DejaVuSans-30" transform="translate(159.033203 0)"/>
       <use xlink:href="#DejaVuSans-38" transform="translate(222.65625 0)"/>
      </g>
     </g>
    </g>
    <g id="ytick_3">
     <g id="line2d_12">
      <g>
       <use xlink:href="#m44716e4197" x="91.005" y="136.267084" style="stroke: #000000; stroke-width: 0.8"/>
      </g>
     </g>
     <g id="text_13">
      <!-- 0.010 -->
      <g transform="translate(38.2 142.345834) scale(0.16 -0.16)">
       <use xlink:href="#DejaVuSans-30"/>
       <use xlink:href="#DejaVuSans-2e" transform="translate(63.623047 0)"/>
       <use xlink:href="#DejaVuSans-30" transform="translate(95.410156 0)"/>
       <use xlink:href="#DejaVuSans-31" transform="translate(159.033203 0)"/>
       <use xlink:href="#DejaVuSans-30" transform="translate(222.65625 0)"/>
      </g>
     </g>
    </g>
    <g id="ytick_4">
     <g id="line2d_13">
      <g>
       <use xlink:href="#m44716e4197" x="91.005" y="65.693689" style="stroke: #000000; stroke-width: 0.8"/>
      </g>
     </g>
     <g id="text_14">
      <!-- 0.012 -->
      <g transform="translate(38.2 71.772439) scale(0.16 -0.16)">
       <use xlink:href="#DejaVuSans-30"/>
       <use xlink:href="#DejaVuSans-2e" transform="translate(63.623047 0)"/>
       <use xlink:href="#DejaVuSans-30" transform="translate(95.410156 0)"/>
       <use xlink:href="#DejaVuSans-31" transform="translate(159.033203 0)"/>
       <use xlink:href="#DejaVuSans-32" transform="translate(222.65625 0)"/>
      </g>
     </g>
    </g>
    <g id="text_15">
     <!-- $\cos^2(\theta_k)$ -->
     <g transform="translate(29.000781 225.52) rotate(-90) scale(0.25 -0.25)">
      <defs>
       <path id="DejaVuSans-63" d="M 3122 3366 
L 3122 2828 
Q 2878 2963 2633 3030 
Q 2388 3097 2138 3097 
Q 1578 3097 1268 2742 
Q 959 2388 959 1747 
Q 959 1106 1268 751 
Q 1578 397 2138 397 
Q 2388 397 2633 464 
Q 2878 531 3122 666 
L 3122 134 
Q 2881 22 2623 -34 
Q 2366 -91 2075 -91 
Q 1284 -91 818 406 
Q 353 903 353 1747 
Q 353 2603 823 3093 
Q 1294 3584 2113 3584 
Q 2378 3584 2631 3529 
Q 2884 3475 3122 3366 
z
" transform="scale(0.015625)"/>
       <path id="DejaVuSans-6f" d="M 1959 3097 
Q 1497 3097 1228 2736 
Q 959 2375 959 1747 
Q 959 1119 1226 758 
Q 1494 397 1959 397 
Q 2419 397 2687 759 
Q 2956 1122 2956 1747 
Q 2956 2369 2687 2733 
Q 2419 3097 1959 3097 
z
M 1959 3584 
Q 2709 3584 3137 3096 
Q 3566 2609 3566 1747 
Q 3566 888 3137 398 
Q 2709 -91 1959 -91 
Q 1206 -91 779 398 
Q 353 888 353 1747 
Q 353 2609 779 3096 
Q 1206 3584 1959 3584 
z
" transform="scale(0.015625)"/>
       <path id="DejaVuSans-73" d="M 2834 3397 
L 2834 2853 
Q 2591 2978 2328 3040 
Q 2066 3103 1784 3103 
Q 1356 3103 1142 2972 
Q 928 2841 928 2578 
Q 928 2378 1081 2264 
Q 1234 2150 1697 2047 
L 1894 2003 
Q 2506 1872 2764 1633 
Q 3022 1394 3022 966 
Q 3022 478 2636 193 
Q 2250 -91 1575 -91 
Q 1294 -91 989 -36 
Q 684 19 347 128 
L 347 722 
Q 666 556 975 473 
Q 1284 391 1588 391 
Q 1994 391 2212 530 
Q 2431 669 2431 922 
Q 2431 1156 2273 1281 
Q 2116 1406 1581 1522 
L 1381 1569 
Q 847 1681 609 1914 
Q 372 2147 372 2553 
Q 372 3047 722 3315 
Q 1072 3584 1716 3584 
Q 2034 3584 2315 3537 
Q 2597 3491 2834 3397 
z
" transform="scale(0.015625)"/>
       <path id="DejaVuSans-28" d="M 1984 4856 
Q 1566 4138 1362 3434 
Q 1159 2731 1159 2009 
Q 1159 1288 1364 580 
Q 1569 -128 1984 -844 
L 1484 -844 
Q 1016 -109 783 600 
Q 550 1309 550 2009 
Q 550 2706 781 3412 
Q 1013 4119 1484 4856 
L 1984 4856 
z
" transform="scale(0.015625)"/>
       <path id="DejaVuSans-Oblique-3b8" d="M 2913 2219 
L 925 2219 
Q 791 1284 928 888 
Q 1100 400 1566 400 
Q 2034 400 2391 891 
Q 2703 1322 2913 2219 
z
M 3009 2750 
Q 3094 3638 2984 3950 
Q 2813 4444 2353 4444 
Q 1875 4444 1525 3956 
Q 1250 3563 1034 2750 
L 3009 2750 
z
M 2444 4913 
Q 3194 4913 3494 4250 
Q 3794 3591 3566 2422 
Q 3341 1256 2781 594 
Q 2225 -72 1475 -72 
Q 722 -72 425 594 
Q 128 1256 353 2422 
Q 581 3591 1134 4250 
Q 1691 4913 2444 4913 
z
" transform="scale(0.015625)"/>
       <path id="DejaVuSans-29" d="M 513 4856 
L 1013 4856 
Q 1481 4119 1714 3412 
Q 1947 2706 1947 2009 
Q 1947 1309 1714 600 
Q 1481 -109 1013 -844 
L 513 -844 
Q 928 -128 1133 580 
Q 1338 1288 1338 2009 
Q 1338 2731 1133 3434 
Q 928 4138 513 4856 
z
" transform="scale(0.015625)"/>
      </defs>
      <use xlink:href="#DejaVuSans-63" transform="translate(0 0.765625)"/>
      <use xlink:href="#DejaVuSans-6f" transform="translate(54.980469 0.765625)"/>
      <use xlink:href="#DejaVuSans-73" transform="translate(116.162109 0.765625)"/>
      <use xlink:href="#DejaVuSans-32" transform="translate(169.21875 39.046875) scale(0.7)"/>
      <use xlink:href="#DejaVuSans-28" transform="translate(232.724934 0.765625)"/>
      <use xlink:href="#DejaVuSans-Oblique-3b8" transform="translate(271.738606 0.765625)"/>
      <use xlink:href="#DejaVuSans-Oblique-6b" transform="translate(332.920247 -15.640625) scale(0.7)"/>
      <use xlink:href="#DejaVuSans-29" transform="translate(376.191731 0.765625)"/>
     </g>
    </g>
   </g>
   <g id="line2d_14">
    <path d="M 623.641364 95.244032 
L 398.736377 245.972445 
L 317.244827 219.703153 
L 279.264758 130.720728 
L 257.658998 146.841801 
L 243.862693 214.268892 
L 233.732432 232.208724 
L 225.376366 224.717394 
L 218.644756 175.019945 
L 212.416898 215.37756 
L 207.070159 236.189437 
L 202.055096 247.06134 
L 197.370031 220.166706 
L 192.949487 204.937241 
L 189.00279 224.248623 
L 185.209808 198.888115 
L 181.239452 246.947655 
L 177.455945 208.770201 
L 173.924865 219.09373 
L 170.638385 229.793355 
L 167.487247 208.58722 
L 164.454082 212.941766 
L 161.554037 210.315742 
L 158.756241 225.49066 
L 155.974833 268.737669 
L 153.116666 238.054336 
L 150.408908 199.393793 
L 147.779671 232.400722 
L 145.376161 207.800842 
L 142.786798 271.221352 
" clip-path="url(#p061591dfef)" style="fill: none; stroke-dasharray: 5.55,2.4; stroke-dashoffset: 0; stroke: #ff0000; stroke-width: 1.5"/>
    <defs>
     <path id="mc40acd578b" d="M 0 3 
C 0.795609 3 1.55874 2.683901 2.12132 2.12132 
C 2.683901 1.55874 3 0.795609 3 0 
C 3 -0.795609 2.683901 -1.55874 2.12132 -2.12132 
C 1.55874 -2.683901 0.795609 -3 0 -3 
C -0.795609 -3 -1.55874 -2.683901 -2.12132 -2.12132 
C -2.683901 -1.55874 -3 -0.795609 -3 0 
C -3 0.795609 -2.683901 1.55874 -2.12132 2.12132 
C -1.55874 2.683901 -0.795609 3 0 3 
z
" style="stroke: #ff0000"/>
    </defs>
    <g clip-path="url(#p061591dfef)">
     <use xlink:href="#mc40acd578b" x="623.641364" y="95.244032" style="fill: #ff0000; stroke: #ff0000"/>
     <use xlink:href="#mc40acd578b" x="398.736377" y="245.972445" style="fill: #ff0000; stroke: #ff0000"/>
     <use xlink:href="#mc40acd578b" x="317.244827" y="219.703153" style="fill: #ff0000; stroke: #ff0000"/>
     <use xlink:href="#mc40acd578b" x="279.264758" y="130.720728" style="fill: #ff0000; stroke: #ff0000"/>
     <use xlink:href="#mc40acd578b" x="257.658998" y="146.841801" style="fill: #ff0000; stroke: #ff0000"/>
     <use xlink:href="#mc40acd578b" x="243.862693" y="214.268892" style="fill: #ff0000; stroke: #ff0000"/>
     <use xlink:href="#mc40acd578b" x="233.732432" y="232.208724" style="fill: #ff0000; stroke: #ff0000"/>
     <use xlink:href="#mc40acd578b" x="225.376366" y="224.717394" style="fill: #ff0000; stroke: #ff0000"/>
     <use xlink:href="#mc40acd578b" x="218.644756" y="175.019945" style="fill: #ff0000; stroke: #ff0000"/>
     <use xlink:href="#mc40acd578b" x="212.416898" y="215.37756" style="fill: #ff0000; stroke: #ff0000"/>
     <use xlink:href="#mc40acd578b" x="207.070159" y="236.189437" style="fill: #ff0000; stroke: #ff0000"/>
     <use xlink:href="#mc40acd578b" x="202.055096" y="247.06134" style="fill: #ff0000; stroke: #ff0000"/>
     <use xlink:href="#mc40acd578b" x="197.370031" y="220.166706" style="fill: #ff0000; stroke: #ff0000"/>
     <use xlink:href="#mc40acd578b" x="192.949487" y="204.937241" style="fill: #ff0000; stroke: #ff0000"/>
     <use xlink:href="#mc40acd578b" x="189.00279" y="224.248623" style="fill: #ff0000; stroke: #ff0000"/>
     <use xlink:href="#mc40acd578b" x="185.209808" y="198.888115" style="fill: #ff0000; stroke: #ff0000"/>
     <use xlink:href="#mc40acd578b" x="181.239452" y="246.947655" style="fill: #ff0000; stroke: #ff0000"/>
     <use xlink:href="#mc40acd578b" x="177.455945" y="208.770201" style="fill: #ff0000; stroke: #ff0000"/>
     <use xlink:href="#mc40acd578b" x="173.924865" y="219.09373" style="fill: #ff0000; stroke: #ff0000"/>
     <use xlink:href="#mc40acd578b" x="170.638385" y="229.793355" style="fill: #ff0000; stroke: #ff0000"/>
     <use xlink:href="#mc40acd578b" x="167.487247" y="208.58722" style="fill: #ff0000; stroke: #ff0000"/>
     <use xlink:href="#mc40acd578b" x="164.454082" y="212.941766" style="fill: #ff0000; stroke: #ff0000"/>
     <use xlink:href="#mc40acd578b" x="161.554037" y="210.315742" style="fill: #ff0000; stroke: #ff0000"/>
     <use xlink:href="#mc40acd578b" x="158.756241" y="225.49066" style="fill: #ff0000; stroke: #ff0000"/>
     <use xlink:href="#mc40acd578b" x="155.974833" y="268.737669" style="fill: #ff0000; stroke: #ff0000"/>
     <use xlink:href="#mc40acd578b" x="153.116666" y="238.054336" style="fill: #ff0000; stroke: #ff0000"/>
     <use xlink:href="#mc40acd578b" x="150.408908" y="199.393793" style="fill: #ff0000; stroke: #ff0000"/>
     <use xlink:href="#mc40acd578b" x="147.779671" y="232.400722" style="fill: #ff0000; stroke: #ff0000"/>
     <use xlink:href="#mc40acd578b" x="145.376161" y="207.800842" style="fill: #ff0000; stroke: #ff0000"/>
     <use xlink:href="#mc40acd578b" x="142.786798" y="271.221352" style="fill: #ff0000; stroke: #ff0000"/>
    </g>
   </g>
   <g id="line2d_15">
    <path d="M 600.606202 184.566835 
L 409.541563 201.776873 
L 330.747289 212.143742 
L 286.79837 190.364522 
L 261.58686 191.469026 
L 244.765618 215.312768 
L 232.995829 208.725806 
L 224.488859 217.071796 
L 217.475464 219.799269 
L 211.599674 211.080335 
L 206.375402 238.633204 
L 201.413683 245.270097 
L 196.88704 228.543979 
L 192.526341 208.86005 
L 188.507594 224.022691 
L 184.529474 219.628686 
L 180.830299 227.607176 
L 177.172964 217.241814 
L 173.79301 220.58848 
L 170.412822 239.73565 
L 167.323668 204.607484 
L 164.253618 196.721941 
L 161.255173 218.892879 
L 158.38892 224.002093 
L 155.615417 229.83874 
L 152.837269 234.404224 
L 150.24009 213.778006 
L 147.625161 227.29094 
L 145.16468 226.843748 
L 142.724655 239.885374 
" clip-path="url(#p061591dfef)" style="fill: none; stroke-dasharray: 5.55,2.4; stroke-dashoffset: 0; stroke: #ffa500; stroke-width: 1.5"/>
    <defs>
     <path id="m7fc833f19c" d="M 0 3 
C 0.795609 3 1.55874 2.683901 2.12132 2.12132 
C 2.683901 1.55874 3 0.795609 3 0 
C 3 -0.795609 2.683901 -1.55874 2.12132 -2.12132 
C 1.55874 -2.683901 0.795609 -3 0 -3 
C -0.795609 -3 -1.55874 -2.683901 -2.12132 -2.12132 
C -2.683901 -1.55874 -3 -0.795609 -3 0 
C -3 0.795609 -2.683901 1.55874 -2.12132 2.12132 
C -1.55874 2.683901 -0.795609 3 0 3 
z
" style="stroke: #ffa500"/>
    </defs>
    <g clip-path="url(#p061591dfef)">
     <use xlink:href="#m7fc833f19c" x="600.606202" y="184.566835" style="fill: #ffa500; stroke: #ffa500"/>
     <use xlink:href="#m7fc833f19c" x="409.541563" y="201.776873" style="fill: #ffa500; stroke: #ffa500"/>
     <use xlink:href="#m7fc833f19c" x="330.747289" y="212.143742" style="fill: #ffa500; stroke: #ffa500"/>
     <use xlink:href="#m7fc833f19c" x="286.79837" y="190.364522" style="fill: #ffa500; stroke: #ffa500"/>
     <use xlink:href="#m7fc833f19c" x="261.58686" y="191.469026" style="fill: #ffa500; stroke: #ffa500"/>
     <use xlink:href="#m7fc833f19c" x="244.765618" y="215.312768" style="fill: #ffa500; stroke: #ffa500"/>
     <use xlink:href="#m7fc833f19c" x="232.995829" y="208.725806" style="fill: #ffa500; stroke: #ffa500"/>
     <use xlink:href="#m7fc833f19c" x="224.488859" y="217.071796" style="fill: #ffa500; stroke: #ffa500"/>
     <use xlink:href="#m7fc833f19c" x="217.475464" y="219.799269" style="fill: #ffa500; stroke: #ffa500"/>
     <use xlink:href="#m7fc833f19c" x="211.599674" y="211.080335" style="fill: #ffa500; stroke: #ffa500"/>
     <use xlink:href="#m7fc833f19c" x="206.375402" y="238.633204" style="fill: #ffa500; stroke: #ffa500"/>
     <use xlink:href="#m7fc833f19c" x="201.413683" y="245.270097" style="fill: #ffa500; stroke: #ffa500"/>
     <use xlink:href="#m7fc833f19c" x="196.88704" y="228.543979" style="fill: #ffa500; stroke: #ffa500"/>
     <use xlink:href="#m7fc833f19c" x="192.526341" y="208.86005" style="fill: #ffa500; stroke: #ffa500"/>
     <use xlink:href="#m7fc833f19c" x="188.507594" y="224.022691" style="fill: #ffa500; stroke: #ffa500"/>
     <use xlink:href="#m7fc833f19c" x="184.529474" y="219.628686" style="fill: #ffa500; stroke: #ffa500"/>
     <use xlink:href="#m7fc833f19c" x="180.830299" y="227.607176" style="fill: #ffa500; stroke: #ffa500"/>
     <use xlink:href="#m7fc833f19c" x="177.172964" y="217.241814" style="fill: #ffa500; stroke: #ffa500"/>
     <use xlink:href="#m7fc833f19c" x="173.79301" y="220.58848" style="fill: #ffa500; stroke: #ffa500"/>
     <use xlink:href="#m7fc833f19c" x="170.412822" y="239.73565" style="fill: #ffa500; stroke: #ffa500"/>
     <use xlink:href="#m7fc833f19c" x="167.323668" y="204.607484" style="fill: #ffa500; stroke: #ffa500"/>
     <use xlink:href="#m7fc833f19c" x="164.253618" y="196.721941" style="fill: #ffa500; stroke: #ffa500"/>
     <use xlink:href="#m7fc833f19c" x="161.255173" y="218.892879" style="fill: #ffa500; stroke: #ffa500"/>
     <use xlink:href="#m7fc833f19c" x="158.38892" y="224.002093" style="fill: #ffa500; stroke: #ffa500"/>
     <use xlink:href="#m7fc833f19c" x="155.615417" y="229.83874" style="fill: #ffa500; stroke: #ffa500"/>
     <use xlink:href="#m7fc833f19c" x="152.837269" y="234.404224" style="fill: #ffa500; stroke: #ffa500"/>
     <use xlink:href="#m7fc833f19c" x="150.24009" y="213.778006" style="fill: #ffa500; stroke: #ffa500"/>
     <use xlink:href="#m7fc833f19c" x="147.625161" y="227.29094" style="fill: #ffa500; stroke: #ffa500"/>
     <use xlink:href="#m7fc833f19c" x="145.16468" y="226.843748" style="fill: #ffa500; stroke: #ffa500"/>
     <use xlink:href="#m7fc833f19c" x="142.724655" y="239.885374" style="fill: #ffa500; stroke: #ffa500"/>
    </g>
   </g>
   <g id="line2d_16">
    <path d="M 444.964193 216.679946 
L 307.118991 229.569732 
L 243.047967 276.692875 
L 222.085983 229.695742 
L 209.785791 223.852847 
L 198.835241 255.933862 
L 191.451409 218.773596 
L 184.80679 242.655299 
L 179.409049 274.171319 
L 174.584235 192.792467 
L 170.169663 263.315261 
L 166.106087 280.797799 
L 162.277358 244.336669 
L 158.755925 235.032123 
L 155.348345 203.503273 
L 151.849066 242.500406 
L 148.679518 235.92678 
L 145.523102 281.077251 
L 142.685264 258.673089 
L 139.844288 206.764634 
L 137.191942 248.904845 
L 134.663035 226.800429 
L 132.089347 274.142586 
L 129.660853 237.341166 
L 127.159969 230.59183 
L 124.97059 218.482579 
L 122.675078 250.335667 
L 120.596376 242.822788 
L 118.478856 215.1984 
L 116.451329 248.771966 
" clip-path="url(#p061591dfef)" style="fill: none; stroke-dasharray: 5.55,2.4; stroke-dashoffset: 0; stroke: #0000ff; stroke-width: 1.5"/>
    <defs>
     <path id="mfbf226718a" d="M 0 3 
C 0.795609 3 1.55874 2.683901 2.12132 2.12132 
C 2.683901 1.55874 3 0.795609 3 0 
C 3 -0.795609 2.683901 -1.55874 2.12132 -2.12132 
C 1.55874 -2.683901 0.795609 -3 0 -3 
C -0.795609 -3 -1.55874 -2.683901 -2.12132 -2.12132 
C -2.683901 -1.55874 -3 -0.795609 -3 0 
C -3 0.795609 -2.683901 1.55874 -2.12132 2.12132 
C -1.55874 2.683901 -0.795609 3 0 3 
z
" style="stroke: #0000ff"/>
    </defs>
    <g clip-path="url(#p061591dfef)">
     <use xlink:href="#mfbf226718a" x="444.964193" y="216.679946" style="fill: #0000ff; stroke: #0000ff"/>
     <use xlink:href="#mfbf226718a" x="307.118991" y="229.569732" style="fill: #0000ff; stroke: #0000ff"/>
     <use xlink:href="#mfbf226718a" x="243.047967" y="276.692875" style="fill: #0000ff; stroke: #0000ff"/>
     <use xlink:href="#mfbf226718a" x="222.085983" y="229.695742" style="fill: #0000ff; stroke: #0000ff"/>
     <use xlink:href="#mfbf226718a" x="209.785791" y="223.852847" style="fill: #0000ff; stroke: #0000ff"/>
     <use xlink:href="#mfbf226718a" x="198.835241" y="255.933862" style="fill: #0000ff; stroke: #0000ff"/>
     <use xlink:href="#mfbf226718a" x="191.451409" y="218.773596" style="fill: #0000ff; stroke: #0000ff"/>
     <use xlink:href="#mfbf226718a" x="184.80679" y="242.655299" style="fill: #0000ff; stroke: #0000ff"/>
     <use xlink:href="#mfbf226718a" x="179.409049" y="274.171319" style="fill: #0000ff; stroke: #0000ff"/>
     <use xlink:href="#mfbf226718a" x="174.584235" y="192.792467" style="fill: #0000ff; stroke: #0000ff"/>
     <use xlink:href="#mfbf226718a" x="170.169663" y="263.315261" style="fill: #0000ff; stroke: #0000ff"/>
     <use xlink:href="#mfbf226718a" x="166.106087" y="280.797799" style="fill: #0000ff; stroke: #0000ff"/>
     <use xlink:href="#mfbf226718a" x="162.277358" y="244.336669" style="fill: #0000ff; stroke: #0000ff"/>
     <use xlink:href="#mfbf226718a" x="158.755925" y="235.032123" style="fill: #0000ff; stroke: #0000ff"/>
     <use xlink:href="#mfbf226718a" x="155.348345" y="203.503273" style="fill: #0000ff; stroke: #0000ff"/>
     <use xlink:href="#mfbf226718a" x="151.849066" y="242.500406" style="fill: #0000ff; stroke: #0000ff"/>
     <use xlink:href="#mfbf226718a" x="148.679518" y="235.92678" style="fill: #0000ff; stroke: #0000ff"/>
     <use xlink:href="#mfbf226718a" x="145.523102" y="281.077251" style="fill: #0000ff; stroke: #0000ff"/>
     <use xlink:href="#mfbf226718a" x="142.685264" y="258.673089" style="fill: #0000ff; stroke: #0000ff"/>
     <use xlink:href="#mfbf226718a" x="139.844288" y="206.764634" style="fill: #0000ff; stroke: #0000ff"/>
     <use xlink:href="#mfbf226718a" x="137.191942" y="248.904845" style="fill: #0000ff; stroke: #0000ff"/>
     <use xlink:href="#mfbf226718a" x="134.663035" y="226.800429" style="fill: #0000ff; stroke: #0000ff"/>
     <use xlink:href="#mfbf226718a" x="132.089347" y="274.142586" style="fill: #0000ff; stroke: #0000ff"/>
     <use xlink:href="#mfbf226718a" x="129.660853" y="237.341166" style="fill: #0000ff; stroke: #0000ff"/>
     <use xlink:href="#mfbf226718a" x="127.159969" y="230.59183" style="fill: #0000ff; stroke: #0000ff"/>
     <use xlink:href="#mfbf226718a" x="124.97059" y="218.482579" style="fill: #0000ff; stroke: #0000ff"/>
     <use xlink:href="#mfbf226718a" x="122.675078" y="250.335667" style="fill: #0000ff; stroke: #0000ff"/>
     <use xlink:href="#mfbf226718a" x="120.596376" y="242.822788" style="fill: #0000ff; stroke: #0000ff"/>
     <use xlink:href="#mfbf226718a" x="118.478856" y="215.1984" style="fill: #0000ff; stroke: #0000ff"/>
     <use xlink:href="#mfbf226718a" x="116.451329" y="248.771966" style="fill: #0000ff; stroke: #0000ff"/>
    </g>
   </g>
   <g id="line2d_17">
    <path d="M 432.250035 208.289656 
L 310.632545 253.571614 
L 254.493056 249.749353 
L 225.791281 225.434442 
L 209.246735 232.686781 
L 198.574049 270.969584 
L 190.704968 222.188334 
L 184.449463 233.954655 
L 178.95445 236.021375 
L 174.122259 233.724569 
L 169.791343 238.742002 
L 165.651657 256.91674 
L 161.925557 221.999172 
L 158.456546 234.320835 
L 155.014773 219.735414 
L 151.673817 243.370976 
L 148.377518 252.230203 
L 145.36137 255.811878 
L 142.453102 223.267183 
L 139.652149 245.471091 
L 136.909516 222.198046 
L 134.370666 235.214092 
L 131.836095 229.675738 
L 129.404542 231.525223 
L 127.025057 237.721623 
L 124.778699 239.390405 
L 122.52358 262.003131 
L 120.452798 247.724094 
L 118.379474 236.683624 
L 116.368636 249.241812 
" clip-path="url(#p061591dfef)" style="fill: none; stroke-dasharray: 5.55,2.4; stroke-dashoffset: 0; stroke: #008000; stroke-width: 1.5"/>
    <defs>
     <path id="m3c44af25a0" d="M 0 3 
C 0.795609 3 1.55874 2.683901 2.12132 2.12132 
C 2.683901 1.55874 3 0.795609 3 0 
C 3 -0.795609 2.683901 -1.55874 2.12132 -2.12132 
C 1.55874 -2.683901 0.795609 -3 0 -3 
C -0.795609 -3 -1.55874 -2.683901 -2.12132 -2.12132 
C -2.683901 -1.55874 -3 -0.795609 -3 0 
C -3 0.795609 -2.683901 1.55874 -2.12132 2.12132 
C -1.55874 2.683901 -0.795609 3 0 3 
z
" style="stroke: #008000"/>
    </defs>
    <g clip-path="url(#p061591dfef)">
     <use xlink:href="#m3c44af25a0" x="432.250035" y="208.289656" style="fill: #008000; stroke: #008000"/>
     <use xlink:href="#m3c44af25a0" x="310.632545" y="253.571614" style="fill: #008000; stroke: #008000"/>
     <use xlink:href="#m3c44af25a0" x="254.493056" y="249.749353" style="fill: #008000; stroke: #008000"/>
     <use xlink:href="#m3c44af25a0" x="225.791281" y="225.434442" style="fill: #008000; stroke: #008000"/>
     <use xlink:href="#m3c44af25a0" x="209.246735" y="232.686781" style="fill: #008000; stroke: #008000"/>
     <use xlink:href="#m3c44af25a0" x="198.574049" y="270.969584" style="fill: #008000; stroke: #008000"/>
     <use xlink:href="#m3c44af25a0" x="190.704968" y="222.188334" style="fill: #008000; stroke: #008000"/>
     <use xlink:href="#m3c44af25a0" x="184.449463" y="233.954655" style="fill: #008000; stroke: #008000"/>
     <use xlink:href="#m3c44af25a0" x="178.95445" y="236.021375" style="fill: #008000; stroke: #008000"/>
     <use xlink:href="#m3c44af25a0" x="174.122259" y="233.724569" style="fill: #008000; stroke: #008000"/>
     <use xlink:href="#m3c44af25a0" x="169.791343" y="238.742002" style="fill: #008000; stroke: #008000"/>
     <use xlink:href="#m3c44af25a0" x="165.651657" y="256.91674" style="fill: #008000; stroke: #008000"/>
     <use xlink:href="#m3c44af25a0" x="161.925557" y="221.999172" style="fill: #008000; stroke: #008000"/>
     <use xlink:href="#m3c44af25a0" x="158.456546" y="234.320835" style="fill: #008000; stroke: #008000"/>
     <use xlink:href="#m3c44af25a0" x="155.014773" y="219.735414" style="fill: #008000; stroke: #008000"/>
     <use xlink:href="#m3c44af25a0" x="151.673817" y="243.370976" style="fill: #008000; stroke: #008000"/>
     <use xlink:href="#m3c44af25a0" x="148.377518" y="252.230203" style="fill: #008000; stroke: #008000"/>
     <use xlink:href="#m3c44af25a0" x="145.36137" y="255.811878" style="fill: #008000; stroke: #008000"/>
     <use xlink:href="#m3c44af25a0" x="142.453102" y="223.267183" style="fill: #008000; stroke: #008000"/>
     <use xlink:href="#m3c44af25a0" x="139.652149" y="245.471091" style="fill: #008000; stroke: #008000"/>
     <use xlink:href="#m3c44af25a0" x="136.909516" y="222.198046" style="fill: #008000; stroke: #008000"/>
     <use xlink:href="#m3c44af25a0" x="134.370666" y="235.214092" style="fill: #008000; stroke: #008000"/>
     <use xlink:href="#m3c44af25a0" x="131.836095" y="229.675738" style="fill: #008000; stroke: #008000"/>
     <use xlink:href="#m3c44af25a0" x="129.404542" y="231.525223" style="fill: #008000; stroke: #008000"/>
     <use xlink:href="#m3c44af25a0" x="127.025057" y="237.721623" style="fill: #008000; stroke: #008000"/>
     <use xlink:href="#m3c44af25a0" x="124.778699" y="239.390405" style="fill: #008000; stroke: #008000"/>
     <use xlink:href="#m3c44af25a0" x="122.52358" y="262.003131" style="fill: #008000; stroke: #008000"/>
     <use xlink:href="#m3c44af25a0" x="120.452798" y="247.724094" style="fill: #008000; stroke: #008000"/>
     <use xlink:href="#m3c44af25a0" x="118.379474" y="236.683624" style="fill: #008000; stroke: #008000"/>
     <use xlink:href="#m3c44af25a0" x="116.368636" y="249.241812" style="fill: #008000; stroke: #008000"/>
    </g>
   </g>
   <g id="patch_3">
    <path d="M 91.005 339.84 
L 91.005 7.2 
" style="fill: none; stroke: #000000; stroke-width: 0.8; stroke-linejoin: miter; stroke-linecap: square"/>
   </g>
   <g id="patch_4">
    <path d="M 649.005 339.84 
L 649.005 7.2 
" style="fill: none; stroke: #000000; stroke-width: 0.8; stroke-linejoin: miter; stroke-linecap: square"/>
   </g>
   <g id="patch_5">
    <path d="M 91.005 339.84 
L 649.005 339.84 
" style="fill: none; stroke: #000000; stroke-width: 0.8; stroke-linejoin: miter; stroke-linecap: square"/>
   </g>
   <g id="patch_6">
    <path d="M 91.005 7.2 
L 649.005 7.2 
" style="fill: none; stroke: #000000; stroke-width: 0.8; stroke-linejoin: miter; stroke-linecap: square"/>
   </g>
   <g id="legend_1">
    <g id="patch_7">
     <path d="M 102.205 113.94 
L 235.6075 113.94 
Q 238.8075 113.94 238.8075 110.74 
L 238.8075 18.4 
Q 238.8075 15.2 235.6075 15.2 
L 102.205 15.2 
Q 99.005 15.2 99.005 18.4 
L 99.005 110.74 
Q 99.005 113.94 102.205 113.94 
z
" style="fill: #ffffff; opacity: 0.8; stroke: #cccccc; stroke-linejoin: miter"/>
    </g>
    <g id="line2d_18">
     <path d="M 105.405 28.1575 
L 121.405 28.1575 
L 137.405 28.1575 
" style="fill: none; stroke-dasharray: 5.55,2.4; stroke-dashoffset: 0; stroke: #ff0000; stroke-width: 1.5"/>
     <g>
      <use xlink:href="#mc40acd578b" x="121.405" y="28.1575" style="fill: #ff0000; stroke: #ff0000"/>
     </g>
    </g>
    <g id="text_16">
     <!-- FR -->
     <g transform="translate(150.205 33.7575) scale(0.16 -0.16)">
      <defs>
       <path id="DejaVuSans-46" d="M 628 4666 
L 3309 4666 
L 3309 4134 
L 1259 4134 
L 1259 2759 
L 3109 2759 
L 3109 2228 
L 1259 2228 
L 1259 0 
L 628 0 
L 628 4666 
z
" transform="scale(0.015625)"/>
       <path id="DejaVuSans-52" d="M 2841 2188 
Q 3044 2119 3236 1894 
Q 3428 1669 3622 1275 
L 4263 0 
L 3584 0 
L 2988 1197 
Q 2756 1666 2539 1819 
Q 2322 1972 1947 1972 
L 1259 1972 
L 1259 0 
L 628 0 
L 628 4666 
L 2053 4666 
Q 2853 4666 3247 4331 
Q 3641 3997 3641 3322 
Q 3641 2881 3436 2590 
Q 3231 2300 2841 2188 
z
M 1259 4147 
L 1259 2491 
L 2053 2491 
Q 2509 2491 2742 2702 
Q 2975 2913 2975 3322 
Q 2975 3731 2742 3939 
Q 2509 4147 2053 4147 
L 1259 4147 
z
" transform="scale(0.015625)"/>
      </defs>
      <use xlink:href="#DejaVuSans-46"/>
      <use xlink:href="#DejaVuSans-52" transform="translate(57.519531 0)"/>
     </g>
    </g>
    <g id="line2d_19">
     <path d="M 105.405 51.6425 
L 121.405 51.6425 
L 137.405 51.6425 
" style="fill: none; stroke-dasharray: 5.55,2.4; stroke-dashoffset: 0; stroke: #ffa500; stroke-width: 1.5"/>
     <g>
      <use xlink:href="#m7fc833f19c" x="121.405" y="51.6425" style="fill: #ffa500; stroke: #ffa500"/>
     </g>
    </g>
    <g id="text_17">
     <!-- FR super -->
     <g transform="translate(150.205 57.2425) scale(0.16 -0.16)">
      <defs>
       <path id="DejaVuSans-20" transform="scale(0.015625)"/>
       <path id="DejaVuSans-75" d="M 544 1381 
L 544 3500 
L 1119 3500 
L 1119 1403 
Q 1119 906 1312 657 
Q 1506 409 1894 409 
Q 2359 409 2629 706 
Q 2900 1003 2900 1516 
L 2900 3500 
L 3475 3500 
L 3475 0 
L 2900 0 
L 2900 538 
Q 2691 219 2414 64 
Q 2138 -91 1772 -91 
Q 1169 -91 856 284 
Q 544 659 544 1381 
z
M 1991 3584 
L 1991 3584 
z
" transform="scale(0.015625)"/>
       <path id="DejaVuSans-70" d="M 1159 525 
L 1159 -1331 
L 581 -1331 
L 581 3500 
L 1159 3500 
L 1159 2969 
Q 1341 3281 1617 3432 
Q 1894 3584 2278 3584 
Q 2916 3584 3314 3078 
Q 3713 2572 3713 1747 
Q 3713 922 3314 415 
Q 2916 -91 2278 -91 
Q 1894 -91 1617 61 
Q 1341 213 1159 525 
z
M 3116 1747 
Q 3116 2381 2855 2742 
Q 2594 3103 2138 3103 
Q 1681 3103 1420 2742 
Q 1159 2381 1159 1747 
Q 1159 1113 1420 752 
Q 1681 391 2138 391 
Q 2594 391 2855 752 
Q 3116 1113 3116 1747 
z
" transform="scale(0.015625)"/>
       <path id="DejaVuSans-65" d="M 3597 1894 
L 3597 1613 
L 953 1613 
Q 991 1019 1311 708 
Q 1631 397 2203 397 
Q 2534 397 2845 478 
Q 3156 559 3463 722 
L 3463 178 
Q 3153 47 2828 -22 
Q 2503 -91 2169 -91 
Q 1331 -91 842 396 
Q 353 884 353 1716 
Q 353 2575 817 3079 
Q 1281 3584 2069 3584 
Q 2775 3584 3186 3129 
Q 3597 2675 3597 1894 
z
M 3022 2063 
Q 3016 2534 2758 2815 
Q 2500 3097 2075 3097 
Q 1594 3097 1305 2825 
Q 1016 2553 972 2059 
L 3022 2063 
z
" transform="scale(0.015625)"/>
       <path id="DejaVuSans-72" d="M 2631 2963 
Q 2534 3019 2420 3045 
Q 2306 3072 2169 3072 
Q 1681 3072 1420 2755 
Q 1159 2438 1159 1844 
L 1159 0 
L 581 0 
L 581 3500 
L 1159 3500 
L 1159 2956 
Q 1341 3275 1631 3429 
Q 1922 3584 2338 3584 
Q 2397 3584 2469 3576 
Q 2541 3569 2628 3553 
L 2631 2963 
z
" transform="scale(0.015625)"/>
      </defs>
      <use xlink:href="#DejaVuSans-46"/>
      <use xlink:href="#DejaVuSans-52" transform="translate(57.519531 0)"/>
      <use xlink:href="#DejaVuSans-20" transform="translate(127.001953 0)"/>
      <use xlink:href="#DejaVuSans-73" transform="translate(158.789062 0)"/>
      <use xlink:href="#DejaVuSans-75" transform="translate(210.888672 0)"/>
      <use xlink:href="#DejaVuSans-70" transform="translate(274.267578 0)"/>
      <use xlink:href="#DejaVuSans-65" transform="translate(337.744141 0)"/>
      <use xlink:href="#DejaVuSans-72" transform="translate(399.267578 0)"/>
     </g>
    </g>
    <g id="line2d_20">
     <path d="M 105.405 75.1275 
L 121.405 75.1275 
L 137.405 75.1275 
" style="fill: none; stroke-dasharray: 5.55,2.4; stroke-dashoffset: 0; stroke: #0000ff; stroke-width: 1.5"/>
     <g>
      <use xlink:href="#mfbf226718a" x="121.405" y="75.1275" style="fill: #0000ff; stroke: #0000ff"/>
     </g>
    </g>
    <g id="text_18">
     <!-- CTR  -->
     <g transform="translate(150.205 80.7275) scale(0.16 -0.16)">
      <defs>
       <path id="DejaVuSans-43" d="M 4122 4306 
L 4122 3641 
Q 3803 3938 3442 4084 
Q 3081 4231 2675 4231 
Q 1875 4231 1450 3742 
Q 1025 3253 1025 2328 
Q 1025 1406 1450 917 
Q 1875 428 2675 428 
Q 3081 428 3442 575 
Q 3803 722 4122 1019 
L 4122 359 
Q 3791 134 3420 21 
Q 3050 -91 2638 -91 
Q 1578 -91 968 557 
Q 359 1206 359 2328 
Q 359 3453 968 4101 
Q 1578 4750 2638 4750 
Q 3056 4750 3426 4639 
Q 3797 4528 4122 4306 
z
" transform="scale(0.015625)"/>
       <path id="DejaVuSans-54" d="M -19 4666 
L 3928 4666 
L 3928 4134 
L 2272 4134 
L 2272 0 
L 1638 0 
L 1638 4134 
L -19 4134 
L -19 4666 
z
" transform="scale(0.015625)"/>
      </defs>
      <use xlink:href="#DejaVuSans-43"/>
      <use xlink:href="#DejaVuSans-54" transform="translate(69.824219 0)"/>
      <use xlink:href="#DejaVuSans-52" transform="translate(130.908203 0)"/>
      <use xlink:href="#DejaVuSans-20" transform="translate(200.390625 0)"/>
     </g>
    </g>
    <g id="line2d_21">
     <path d="M 105.405 98.6125 
L 121.405 98.6125 
L 137.405 98.6125 
" style="fill: none; stroke-dasharray: 5.55,2.4; stroke-dashoffset: 0; stroke: #008000; stroke-width: 1.5"/>
     <g>
      <use xlink:href="#m3c44af25a0" x="121.405" y="98.6125" style="fill: #008000; stroke: #008000"/>
     </g>
    </g>
    <g id="text_19">
     <!-- CTR super -->
     <g transform="translate(150.205 104.2125) scale(0.16 -0.16)">
      <use xlink:href="#DejaVuSans-43"/>
      <use xlink:href="#DejaVuSans-54" transform="translate(69.824219 0)"/>
      <use xlink:href="#DejaVuSans-52" transform="translate(130.908203 0)"/>
      <use xlink:href="#DejaVuSans-20" transform="translate(200.390625 0)"/>
      <use xlink:href="#DejaVuSans-73" transform="translate(232.177734 0)"/>
      <use xlink:href="#DejaVuSans-75" transform="translate(284.277344 0)"/>
      <use xlink:href="#DejaVuSans-70" transform="translate(347.65625 0)"/>
      <use xlink:href="#DejaVuSans-65" transform="translate(411.132812 0)"/>
      <use xlink:href="#DejaVuSans-72" transform="translate(472.65625 0)"/>
     </g>
    </g>
   </g>
  </g>
 </g>
 <defs>
  <clipPath id="p061591dfef">
   <rect x="91.005" y="7.2" width="558" height="332.64"/>
  </clipPath>
 </defs>
</svg>
